{
  "accessors": [
    {
      "bufferView": 2,
      "componentType": 5126,
      "count": 24,
      "max": [
        1.0,
        1.0,
        1.0
      ],
      "min": [
        -1.0,
        -1.0,
        -1.0
      ],
      "type": "VEC3"
    },
    {
      "bufferView": 2,
      "byteOffset": 288,
      "componentType": 5126,
      "count": 24,
      "max": [
        1.0,
        1.0,
        1.0
      ],
      "min": [
        -1.0,
        -1.0,
        -1.0
      ],
      "type": "VEC3"
    },
    {
      "bufferView": 1,
      "componentType": 5126,
      "count": 24,
      "max": [
        0.7499567270278931,
        0.9999133944511414
      ],
      "min": [
        8.658754813950509e-05,
        8.660554885864258e-05
      ],
      "type": "VEC2"
    },
    {
      "bufferView": 0,
      "componentType": 5125,
      "count": 36,
      "type": "SCALAR"
    },
    {
      "bufferView": 2,
      "byteOffset": 576,
      "componentType": 5126,
      "count": 65532,
      "max": [
        1.9130151271820068,
        0.9558925628662109,
        2.428516149520874
      ],
      "min": [
        -2.3212687969207764,
        -1.5713520050048828,
        -2.1948180198669434
      ],
      "type": "VEC3"
    },
    {
      "bufferView": 2,
      "byteOffset": 786960,
      "componentType": 5126,
      "count": 65532,
      "max": [
        1.0,
        1.0,
        1.0
      ],
      "min": [
        -1.0,
        -1.0,
        -1.0
      ],
      "type": "VEC3"
    },
    {
      "bufferView": 1,
      "byteOffset": 192,
      "componentType": 5126,
      "count": 65532,
      "max": [
        0.9996770024299622,
        0.9995279908180237
      ],
      "min": [
        0.0002739999908953905,
        0.00027000904083251953
      ],
      "type": "VEC2"
    },
    {
      "bufferView": 0,
      "byteOffset": 144,
      "componentType": 5125,
      "count": 275421,
      "type": "SCALAR"
    },
    {
      "bufferView": 2,
      "byteOffset": 1573344,
      "componentType": 5126,
      "count": 65533,
      "max": [
        2.1235013008117676,
        0.9516582489013672,
        2.4289791584014893
      ],
      "min": [
        -2.2997689247131348,
        -1.5284738540649414,
        -2.190943956375122
      ],
      "type": "VEC3"
    },
    {
      "bufferView": 2,
      "byteOffset": 2359740,
      "componentType": 5126,
      "count": 65533,
      "max": [
        0.998969316482544,
        0.999994695186615,
        0.9999470114707947
      ],
      "min": [
        -0.9999815225601196,
        -0.9999998211860657,
        -0.999932587146759
      ],
      "type": "VEC3"
    },
    {
      "bufferView": 1,
      "byteOffset": 524448,
      "componentType": 5126,
      "count": 65533,
      "max": [
        0.9997000098228455,
        0.9995920062065125
      ],
      "min": [
        0.0002749999985098839,
        0.00027000904083251953
      ],
      "type": "VEC2"
    },
    {
      "bufferView": 0,
      "byteOffset": 1101828,
      "componentType": 5125,
      "count": 252213,
      "type": "SCALAR"
    },
    {
      "bufferView": 2,
      "byteOffset": 3146136,
      "componentType": 5126,
      "count": 65532,
      "max": [
        2.124321222305298,
        0.9556961059570313,
        2.4282891750335693
      ],
      "min": [
        -2.3043248653411865,
        -1.5859575271606445,
        -2.202162981033325
      ],
      "type": "VEC3"
    },
    {
      "bufferView": 2,
      "byteOffset": 3932520,
      "componentType": 5126,
      "count": 65532,
      "max": [
        0.9999218583106995,
        0.9999982118606567,
        0.9999427199363708
      ],
      "min": [
        -0.9998817443847656,
        -0.9999669194221497,
        -0.9998787045478821
      ],
      "type": "VEC3"
    },
    {
      "bufferView": 1,
      "byteOffset": 1048712,
      "componentType": 5126,
      "count": 65532,
      "max": [
        0.9997230172157288,
        0.9995909929275513
      ],
      "min": [
        0.0002809999859891832,
        0.00027000904083251953
      ],
      "type": "VEC2"
    },
    {
      "bufferView": 0,
      "byteOffset": 2110680,
      "componentType": 5125,
      "count": 216831,
      "type": "SCALAR"
    },
    {
      "bufferView": 2,
      "byteOffset": 4718904,
      "componentType": 5126,
      "count": 65532,
      "max": [
        2.124321222305298,
        0.9558086395263672,
        2.4386279582977295
      ],
      "min": [
        -2.3177647590637207,
        -1.606144905090332,
        -2.21248197555542
      ],
      "type": "VEC3"
    },
    {
      "bufferView": 2,
      "byteOffset": 5505288,
      "componentType": 5126,
      "count": 65532,
      "max": [
        0.9999786615371704,
        0.9999666810035706,
        0.9999427199363708
      ],
      "min": [
        -0.9998157024383545,
        -0.9999786019325256,
        -0.9999659657478333
      ],
      "type": "VEC3"
    },
    {
      "bufferView": 1,
      "byteOffset": 1572968,
      "componentType": 5126,
      "count": 65532,
      "max": [
        0.9997239708900452,
        0.9995819926261902
      ],
      "min": [
        0.0002690000110305846,
        0.00026798248291015625
      ],
      "type": "VEC2"
    },
    {
      "bufferView": 0,
      "byteOffset": 2978004,
      "componentType": 5125,
      "count": 178230,
      "type": "SCALAR"
    },
    {
      "bufferView": 2,
      "byteOffset": 6291672,
      "componentType": 5126,
      "count": 65532,
      "max": [
        2.124258279800415,
        0.9558925628662109,
        2.4386279582977295
      ],
      "min": [
        -2.3212687969207764,
        -1.683009147644043,
        -2.21248197555542
      ],
      "type": "VEC3"
    },
    {
      "bufferView": 2,
      "byteOffset": 7078056,
      "componentType": 5126,
      "count": 65532,
      "max": [
        1.0,
        1.0,
        1.0
      ],
      "min": [
        -1.0,
        -1.0,
        -1.0
      ],
      "type": "VEC3"
    },
    {
      "bufferView": 1,
      "byteOffset": 2097224,
      "componentType": 5126,
      "count": 65532,
      "max": [
        0.9997280240058899,
        0.9995279908180237
      ],
      "min": [
        0.0002690000110305846,
        0.00027102231979370117
      ],
      "type": "VEC2"
    },
    {
      "bufferView": 0,
      "byteOffset": 3690924,
      "componentType": 5125,
      "count": 128907,
      "type": "SCALAR"
    },
    {
      "bufferView": 2,
      "byteOffset": 7864440,
      "componentType": 5126,
      "count": 49020,
      "max": [
        2.12347412109375,
        0.9556961059570313,
        2.4289791584014893
      ],
      "min": [
        -2.307154893875122,
        -1.683009147644043,
        -2.2156708240509033
      ],
      "type": "VEC3"
    },
    {
      "bufferView": 2,
      "byteOffset": 8452680,
      "componentType": 5126,
      "count": 49020,
      "max": [
        1.0,
        1.0,
        1.0
      ],
      "min": [
        -1.0,
        -1.0,
        -1.0
      ],
      "type": "VEC3"
    },
    {
      "bufferView": 1,
      "byteOffset": 2621480,
      "componentType": 5126,
      "count": 49020,
      "max": [
        0.9997169971466064,
        0.9995800256729126
      ],
      "min": [
        0.0002809999859891832,
        0.00026798248291015625
      ],
      "type": "VEC2"
    },
    {
      "bufferView": 0,
      "byteOffset": 4206552,
      "componentType": 5125,
      "count": 71280,
      "type": "SCALAR"
    },
    {
      "bufferView": 2,
      "byteOffset": 9040920,
      "componentType": 5126,
      "count": 1326,
      "max": [
        0.6700050234794617,
        -0.7027307152748108,
        0.9347286224365234
      ],
      "min": [
        0.4102286696434021,
        -0.9483740925788879,
        0.7589729428291321
      ],
      "type": "VEC3"
    },
    {
      "bufferView": 2,
      "byteOffset": 9056832,
      "componentType": 5126,
      "count": 1326,
      "max": [
        0.9955399036407471,
        0.995143473148346,
        0.9988487362861633
      ],
      "min": [
        -0.9892554879188538,
        -0.9965691566467285,
        -0.9996221661567688
      ],
      "type": "VEC3"
    },
    {
      "bufferView": 1,
      "byteOffset": 3013640,
      "componentType": 5126,
      "count": 1326,
      "max": [
        0.9913939833641052,
        0.9929140210151672
      ],
      "min": [
        0.005915000103414059,
        0.004222989082336426
      ],
      "type": "VEC2"
    },
    {
      "bufferView": 0,
      "byteOffset": 4491672,
      "componentType": 5125,
      "count": 3966,
      "type": "SCALAR"
    }
  ],
  "asset": {
    "extras": {
      "author": "ffish.asia / floraZia.com (https://sketchfab.com/ffishAsia-and-floraZia)",
      "license": "CC-BY-4.0 (http://creativecommons.org/licenses/by/4.0/)",
      "source": "https://sketchfab.com/3d-models/asian-giant-hornet-vespa-mandarinia-f9c1f7e3f373491fbf01adf94ec8169e",
      "title": "オオスズメバチ Asian Giant Hornet, Vespa mandarinia"
    },
    "generator": "Sketchfab-13.31.0",
    "version": "2.0"
  },
  "bufferViews": [
    {
      "buffer": 0,
      "byteLength": 4507536,
      "name": "floatBufferViews",
      "target": 34963
    },
    {
      "buffer": 0,
      "byteLength": 3024248,
      "byteOffset": 4507536,
      "byteStride": 8,
      "name": "floatBufferViews",
      "target": 34962
    },
    {
      "buffer": 0,
      "byteLength": 9072744,
      "byteOffset": 7531784,
      "byteStride": 12,
      "name": "floatBufferViews",
      "target": 34962
    }
  ],
  "buffers": [
    {
      "byteLength": 16604528,
      "uri": "scene.bin"
    }
  ],
  "extensionsUsed": [
    "KHR_materials_unlit"
  ],
  "images": [
    {
      "uri": "textures/Material.001_baseColor.jpeg"
    },
    {
      "uri": "textures/body.002_baseColor.jpeg"
    }
  ],
  "materials": [
    {
      "doubleSided": true,
      "extensions": {
        "KHR_materials_unlit": {}
      },
      "name": "Material.001",
      "pbrMetallicRoughness": {
        "baseColorTexture": {
          "index": 0
        },
        "metallicFactor": 0.0
      }
    },
    {
      "doubleSided": true,
      "extensions": {
        "KHR_materials_unlit": {}
      },
      "name": "body.002",
      "pbrMetallicRoughness": {
        "baseColorTexture": {
          "index": 1
        },
        "metallicFactor": 0.0
      }
    },
    {
      "doubleSided": true,
      "extensions": {
        "KHR_materials_unlit": {}
      },
      "name": "body",
      "pbrMetallicRoughness": {
        "baseColorTexture": {
          "index": 1
        },
        "metallicFactor": 0.0
      }
    }
  ],
  "meshes": [
    {
      "name": "Object_0",
      "primitives": [
        {
          "attributes": {
            "NORMAL": 1,
            "POSITION": 0,
            "TEXCOORD_0": 2
          },
          "indices": 3,
          "material": 0,
          "mode": 4
        }
      ]
    },
    {
      "name": "Object_1",
      "primitives": [
        {
          "attributes": {
            "NORMAL": 5,
            "POSITION": 4,
            "TEXCOORD_0": 6
          },
          "indices": 7,
          "material": 1,
          "mode": 4
        }
      ]
    },
    {
      "name": "Object_2",
      "primitives": [
        {
          "attributes": {
            "NORMAL": 9,
            "POSITION": 8,
            "TEXCOORD_0": 10
          },
          "indices": 11,
          "material": 1,
          "mode": 4
        }
      ]
    },
    {
      "name": "Object_3",
      "primitives": [
        {
          "attributes": {
            "NORMAL": 13,
            "POSITION": 12,
            "TEXCOORD_0": 14
          },
          "indices": 15,
          "material": 1,
          "mode": 4
        }
      ]
    },
    {
      "name": "Object_4",
      "primitives": [
        {
          "attributes": {
            "NORMAL": 17,
            "POSITION": 16,
            "TEXCOORD_0": 18
          },
          "indices": 19,
          "material": 1,
          "mode": 4
        }
      ]
    },
    {
      "name": "Object_5",
      "primitives": [
        {
          "attributes": {
            "NORMAL": 21,
            "POSITION": 20,
            "TEXCOORD_0": 22
          },
          "indices": 23,
          "material": 1,
          "mode": 4
        }
      ]
    },
    {
      "name": "Object_6",
      "primitives": [
        {
          "attributes": {
            "NORMAL": 25,
            "POSITION": 24,
            "TEXCOORD_0": 26
          },
          "indices": 27,
          "material": 1,
          "mode": 4
        }
      ]
    },
    {
      "name": "Object_7",
      "primitives": [
        {
          "attributes": {
            "NORMAL": 29,
            "POSITION": 28,
            "TEXCOORD_0": 30
          },
          "indices": 31,
          "material": 2,
          "mode": 4
        }
      ]
    }
  ],
  "nodes": [
    {
      "children": [
        1
      ],
      "matrix": [
        1.0,
        0.0,
        0.0,
        0.0,
        0.0,
        2.220446049250313e-16,
        -1.0,
        0.0,
        0.0,
        1.0,
        2.220446049250313e-16,
        0.0,
        0.0,
        0.0,
        0.0,
        1.0
      ],
      "name": "Sketchfab_model"
    },
    {
      "children": [
        2
      ],
      "name": "root"
    },
    {
      "children": [
        3,
        5
      ],
      "matrix": [
        1.0,
        0.0,
        0.0,
        0.0,
        0.0,
        2.220446049250313e-16,
        1.0,
        0.0,
        0.0,
        -1.0,
        2.220446049250313e-16,
        0.0,
        0.0,
        0.0,
        0.0,
        1.0
      ],
      "name": "GLTF_SceneRootNode"
    },
    {
      "children": [
        4
      ],
      "matrix": [
        -0.0005508633414607293,
        -0.2973936321139053,
        0.0010607393543153045,
        0.0,
        0.00137297104214889,
        -0.0010632731032756111,
        -0.2973909937562177,
        0.0,
        0.29739241414715023,
        -0.0005459570062513356,
        0.001374929580127982,
        0.0,
        3.4449987411499023,
        -0.009604118764400482,
        -0.0001915469765663147,
        1.0
      ],
      "name": "Cube_2"
    },
    {
      "mesh": 0,
      "name": "Object_4"
    },
    {
      "children": [
        6,
        7,
        8,
        9,
        10,
        11,
        12
      ],
      "matrix": [
        -0.7402346657345074,
        -0.053299491674458604,
        -0.6702326490347713,
        0.0,
        0.1266180407457933,
        0.9679656065996032,
        -0.21681894796802006,
        0.0,
        0.6603184923978876,
        -0.24536044633866047,
        -0.7097730200351902,
        0.0,
        0.0,
        0.0,
        0.0,
        1.0
      ],
      "name": "body.002_5"
    },
    {
      "mesh": 1,
      "name": "Object_6"
    },
    {
      "mesh": 2,
      "name": "Object_7"
    },
    {
      "mesh": 3,
      "name": "Object_8"
    },
    {
      "mesh": 4,
      "name": "Object_9"
    },
    {
      "mesh": 5,
      "name": "Object_10"
    },
    {
      "mesh": 6,
      "name": "Object_11"
    },
    {
      "mesh": 7,
      "name": "Object_12"
    }
  ],
  "samplers": [
    {
      "magFilter": 9729,
      "minFilter": 9987,
      "wrapS": 10497,
      "wrapT": 10497
    }
  ],
  "scene": 0,
  "scenes": [
    {
      "name": "Sketchfab_Scene",
      "nodes": [
        0
      ]
    }
  ],
  "textures": [
    {
      "sampler": 0,
      "source": 0
    },
    {
      "sampler": 0,
      "source": 1
    }
  ]
}
