{
  "accessors": [
    {
      "bufferView": 2,
      "componentType": 5126,
      "count": 24,
      "max": [
        1.0,
        1.0,
        1.0
      ],
      "min": [
        -1.0,
        -1.0,
        -1.0
      ],
      "type": "VEC3"
    },
    {
      "bufferView": 2,
      "byteOffset": 288,
      "componentType": 5126,
      "count": 24,
      "max": [
        1.0,
        1.0,
        1.0
      ],
      "min": [
        -1.0,
        -1.0,
        -1.0
      ],
      "type": "VEC3"
    },
    {
      "bufferView": 1,
      "componentType": 5126,
      "count": 24,
      "max": [
        0.7499567270278931,
        0.9999133944511414
      ],
      "min": [
        8.658754813950509e-05,
        8.660554885864258e-05
      ],
      "type": "VEC2"
    },
    {
      "bufferView": 0,
      "componentType": 5125,
      "count": 36,
      "type": "SCALAR"
    },
    {
      "bufferView": 2,
      "byteOffset": 576,
      "componentType": 5126,
      "count": 65532,
      "max": [
        2.300738573074341,
        2.761673927307129,
        1.859527587890625
      ],
      "min": [
        -3.0166873931884766,
        -2.5777902603149414,
        -1.1268634796142578
      ],
      "type": "VEC3"
    },
    {
      "bufferView": 2,
      "byteOffset": 786960,
      "componentType": 5126,
      "count": 65532,
      "max": [
        1.0,
        1.0,
        1.0
      ],
      "min": [
        -1.0,
        -1.0,
        -1.0
      ],
      "type": "VEC3"
    },
    {
      "bufferView": 1,
      "byteOffset": 192,
      "componentType": 5126,
      "count": 65532,
      "max": [
        0.999646008014679,
        0.9984300136566162
      ],
      "min": [
        0.00037799999699927866,
        0.00036400556564331055
      ],
      "type": "VEC2"
    },
    {
      "bufferView": 0,
      "byteOffset": 144,
      "componentType": 5125,
      "count": 282258,
      "type": "SCALAR"
    },
    {
      "bufferView": 2,
      "byteOffset": 1573344,
      "componentType": 5126,
      "count": 65532,
      "max": [
        2.3010334968566895,
        2.8017969131469727,
        1.929775595664978
      ],
      "min": [
        -3.0564634799957275,
        -2.5775365829467773,
        -1.121437430381775
      ],
      "type": "VEC3"
    },
    {
      "bufferView": 2,
      "byteOffset": 2359728,
      "componentType": 5126,
      "count": 65532,
      "max": [
        0.9999038577079773,
        0.999979555606842,
        0.9999793767929077
      ],
      "min": [
        -0.9999849796295166,
        -0.9999927282333374,
        -0.9999802708625793
      ],
      "type": "VEC3"
    },
    {
      "bufferView": 1,
      "byteOffset": 524448,
      "componentType": 5126,
      "count": 65532,
      "max": [
        0.9996449947357178,
        0.9993020296096802
      ],
      "min": [
        0.00035099999513477087,
        0.00036901235580444336
      ],
      "type": "VEC2"
    },
    {
      "bufferView": 0,
      "byteOffset": 1129176,
      "componentType": 5125,
      "count": 197670,
      "type": "SCALAR"
    },
    {
      "bufferView": 2,
      "byteOffset": 3146112,
      "componentType": 5126,
      "count": 57351,
      "max": [
        2.3010334968566895,
        2.8017969131469727,
        2.0168614387512207
      ],
      "min": [
        -3.069547414779663,
        -2.5777902603149414,
        -1.142682433128357
      ],
      "type": "VEC3"
    },
    {
      "bufferView": 2,
      "byteOffset": 3834324,
      "componentType": 5126,
      "count": 57351,
      "max": [
        1.0,
        1.0,
        1.0
      ],
      "min": [
        -1.0,
        -1.0,
        -1.0
      ],
      "type": "VEC3"
    },
    {
      "bufferView": 1,
      "byteOffset": 1048704,
      "componentType": 5126,
      "count": 57351,
      "max": [
        0.9996449947357178,
        0.99897700548172
      ],
      "min": [
        0.0003549999964889139,
        0.0003510117530822754
      ],
      "type": "VEC2"
    },
    {
      "bufferView": 0,
      "byteOffset": 1919856,
      "componentType": 5125,
      "count": 99435,
      "type": "SCALAR"
    }
  ],
  "asset": {
    "extras": {
      "author": "ffish.asia / floraZia.com (https://sketchfab.com/ffishAsia-and-floraZia)",
      "license": "CC-BY-4.0 (http://creativecommons.org/licenses/by/4.0/)",
      "source": "https://sketchfab.com/3d-models/s-sawtooth-stag-beetle-9e9c7e0c0aeb4cf68e597dc4cb325506",
      "title": "ノコギリクワガタ ♂S Sawtooth Stag Beetle"
    },
    "generator": "Sketchfab-13.74.0",
    "version": "2.0"
  },
  "bufferViews": [
    {
      "buffer": 0,
      "byteLength": 2317596,
      "name": "floatBufferViews",
      "target": 34963
    },
    {
      "buffer": 0,
      "byteLength": 1507512,
      "byteOffset": 2317596,
      "byteStride": 8,
      "name": "floatBufferViews",
      "target": 34962
    },
    {
      "buffer": 0,
      "byteLength": 4522536,
      "byteOffset": 3825108,
      "byteStride": 12,
      "name": "floatBufferViews",
      "target": 34962
    }
  ],
  "buffers": [
    {
      "byteLength": 8347644,
      "uri": "scene.bin"
    }
  ],
  "extensionsUsed": [
    "KHR_materials_unlit"
  ],
  "images": [
    {
      "uri": "textures/Material.001_baseColor.jpeg"
    },
    {
      "uri": "textures/IKINOSHIMA001-W12-1all-2.001_baseColor.jpeg"
    }
  ],
  "materials": [
    {
      "doubleSided": true,
      "extensions": {
        "KHR_materials_unlit": {}
      },
      "name": "Material.001",
      "pbrMetallicRoughness": {
        "baseColorTexture": {
          "index": 0
        },
        "metallicFactor": 0.0
      }
    },
    {
      "doubleSided": true,
      "extensions": {
        "KHR_materials_unlit": {}
      },
      "name": "IKINOSHIMA001-W12-1all-2.001",
      "pbrMetallicRoughness": {
        "baseColorTexture": {
          "index": 1
        },
        "metallicFactor": 0.0
      }
    }
  ],
  "meshes": [
    {
      "name": "Object_0",
      "primitives": [
        {
          "attributes": {
            "NORMAL": 1,
            "POSITION": 0,
            "TEXCOORD_0": 2
          },
          "indices": 3,
          "material": 0,
          "mode": 4
        }
      ]
    },
    {
      "name": "Object_1",
      "primitives": [
        {
          "attributes": {
            "NORMAL": 5,
            "POSITION": 4,
            "TEXCOORD_0": 6
          },
          "indices": 7,
          "material": 1,
          "mode": 4
        }
      ]
    },
    {
      "name": "Object_2",
      "primitives": [
        {
          "attributes": {
            "NORMAL": 9,
            "POSITION": 8,
            "TEXCOORD_0": 10
          },
          "indices": 11,
          "material": 1,
          "mode": 4
        }
      ]
    },
    {
      "name": "Object_3",
      "primitives": [
        {
          "attributes": {
            "NORMAL": 13,
            "POSITION": 12,
            "TEXCOORD_0": 14
          },
          "indices": 15,
          "material": 1,
          "mode": 4
        }
      ]
    }
  ],
  "nodes": [
    {
      "children": [
        1
      ],
      "matrix": [
        1.0,
        0.0,
        0.0,
        0.0,
        0.0,
        2.220446049250313e-16,
        -1.0,
        0.0,
        0.0,
        1.0,
        2.220446049250313e-16,
        0.0,
        0.0,
        0.0,
        0.0,
        1.0
      ],
      "name": "Sketchfab_model"
    },
    {
      "children": [
        2
      ],
      "name": "root"
    },
    {
      "children": [
        3,
        5
      ],
      "matrix": [
        1.0,
        0.0,
        0.0,
        0.0,
        0.0,
        2.220446049250313e-16,
        1.0,
        0.0,
        0.0,
        -1.0,
        2.220446049250313e-16,
        0.0,
        0.0,
        0.0,
        0.0,
        1.0
      ],
      "name": "GLTF_SceneRootNode"
    },
    {
      "children": [
        4
      ],
      "matrix": [
        -0.0008843820442574524,
        -0.4774497929388791,
        0.0017029610939550523,
        0.0,
        0.0022042325195472524,
        -0.0017070288297791113,
        -0.4774455391513219,
        0.0,
        0.4774477716685086,
        -0.0008765050608605379,
        0.002207376627664777,
        0.0,
        4.454105377197266,
        -0.009604118764400482,
        -0.008137272670865059,
        1.0
      ],
      "name": "Cube_2"
    },
    {
      "mesh": 0,
      "name": "Object_4"
    },
    {
      "children": [
        6,
        7,
        8
      ],
      "matrix": [
        -0.5380396716129812,
        0.5462101357963756,
        -0.6420029589681813,
        0.0,
        0.8414164363043035,
        0.30256263363515923,
        -0.4477434906782256,
        0.0,
        -0.05031592677831881,
        -0.7810956025231877,
        -0.6223808859784958,
        0.0,
        0.0,
        0.0,
        0.0,
        1.0
      ],
      "name": "IKINOSHIMA001-W12-1all-2_5"
    },
    {
      "mesh": 1,
      "name": "Object_6"
    },
    {
      "mesh": 2,
      "name": "Object_7"
    },
    {
      "mesh": 3,
      "name": "Object_8"
    }
  ],
  "samplers": [
    {
      "magFilter": 9729,
      "minFilter": 9987,
      "wrapS": 10497,
      "wrapT": 10497
    }
  ],
  "scene": 0,
  "scenes": [
    {
      "name": "Sketchfab_Scene",
      "nodes": [
        0
      ]
    }
  ],
  "textures": [
    {
      "sampler": 0,
      "source": 0
    },
    {
      "sampler": 0,
      "source": 1
    }
  ]
}
