{
  "accessors": [
    {
      "bufferView": 2,
      "componentType": 5126,
      "count": 65533,
      "max": [
        443.3896484375,
        472.1318664550781,
        193.32754516601563
      ],
      "min": [
        -409.8118591308594,
        -421.4059143066406,
        -173.7613067626953
      ],
      "type": "VEC3"
    },
    {
      "bufferView": 2,
      "byteOffset": 786396,
      "componentType": 5126,
      "count": 65533,
      "max": [
        0.9995431900024414,
        0.999862015247345,
        0.9999967813491821
      ],
      "min": [
        -0.9999921917915344,
        -0.9999849200248718,
        -0.9999722838401794
      ],
      "type": "VEC3"
    },
    {
      "bufferView": 1,
      "componentType": 5126,
      "count": 65533,
      "max": [
        0.9964683055877686,
        0.9996656179428101
      ],
      "min": [
        0.0003669045108836144,
        0.0009461045265197754
      ],
      "type": "VEC2"
    },
    {
      "bufferView": 0,
      "componentType": 5125,
      "count": 286344,
      "type": "SCALAR"
    },
    {
      "bufferView": 2,
      "byteOffset": 1572792,
      "componentType": 5126,
      "count": 65533,
      "max": [
        473.2070007324219,
        451.2501220703125,
        192.88824462890625
      ],
      "min": [
        -410.3295593261719,
        -527.8681030273438,
        -147.0845947265625
      ],
      "type": "VEC3"
    },
    {
      "bufferView": 2,
      "byteOffset": 2359188,
      "componentType": 5126,
      "count": 65533,
      "max": [
        0.9999792575836182,
        0.9995293021202087,
        0.9999922513961792
      ],
      "min": [
        -0.9999699592590332,
        -0.9996386170387268,
        -1.0
      ],
      "type": "VEC3"
    },
    {
      "bufferView": 1,
      "byteOffset": 524264,
      "componentType": 5126,
      "count": 65533,
      "max": [
        0.9988002181053162,
        0.9996718764305115
      ],
      "min": [
        0.0003286584687884897,
        0.0010415315628051758
      ],
      "type": "VEC2"
    },
    {
      "bufferView": 0,
      "byteOffset": 1145376,
      "componentType": 5125,
      "count": 241662,
      "type": "SCALAR"
    },
    {
      "bufferView": 2,
      "byteOffset": 3145584,
      "componentType": 5126,
      "count": 65532,
      "max": [
        485.0555114746094,
        364.05438232421875,
        192.6656036376953
      ],
      "min": [
        -398.0267639160156,
        -518.9789428710938,
        -163.6479034423828
      ],
      "type": "VEC3"
    },
    {
      "bufferView": 2,
      "byteOffset": 3931968,
      "componentType": 5126,
      "count": 65532,
      "max": [
        0.9998633861541748,
        0.9999167323112488,
        0.9999955296516418
      ],
      "min": [
        -0.9999340176582336,
        -0.9994736909866333,
        -1.0
      ],
      "type": "VEC3"
    },
    {
      "bufferView": 1,
      "byteOffset": 1048528,
      "componentType": 5126,
      "count": 65532,
      "max": [
        0.9986007809638977,
        0.99967360496521
      ],
      "min": [
        0.0003677739587146789,
        0.0008958578109741211
      ],
      "type": "VEC2"
    },
    {
      "bufferView": 0,
      "byteOffset": 2112024,
      "componentType": 5125,
      "count": 241998,
      "type": "SCALAR"
    },
    {
      "bufferView": 2,
      "byteOffset": 4718352,
      "componentType": 5126,
      "count": 65533,
      "max": [
        485.0555114746094,
        471.2170104980469,
        185.23753356933594
      ],
      "min": [
        -406.440185546875,
        -526.7710571289063,
        -169.1339569091797
      ],
      "type": "VEC3"
    },
    {
      "bufferView": 2,
      "byteOffset": 5504748,
      "componentType": 5126,
      "count": 65533,
      "max": [
        0.9999970197677612,
        0.9999167323112488,
        0.9999967813491821
      ],
      "min": [
        -0.9999921917915344,
        -0.9996665120124817,
        -0.9999663233757019
      ],
      "type": "VEC3"
    },
    {
      "bufferView": 1,
      "byteOffset": 1572784,
      "componentType": 5126,
      "count": 65533,
      "max": [
        0.9993861317634583,
        0.9996752738952637
      ],
      "min": [
        0.00032844048109836876,
        0.0008057355880737305
      ],
      "type": "VEC2"
    },
    {
      "bufferView": 0,
      "byteOffset": 3080016,
      "componentType": 5125,
      "count": 161481,
      "type": "SCALAR"
    },
    {
      "bufferView": 2,
      "byteOffset": 6291144,
      "componentType": 5126,
      "count": 34304,
      "max": [
        484.0652160644531,
        471.195068359375,
        193.19216918945313
      ],
      "min": [
        -409.37384033203125,
        -527.2106323242188,
        -172.6383514404297
      ],
      "type": "VEC3"
    },
    {
      "bufferView": 2,
      "byteOffset": 6702792,
      "componentType": 5126,
      "count": 34304,
      "max": [
        0.9999223947525024,
        0.9955334067344666,
        0.9999710321426392
      ],
      "min": [
        -0.9999921917915344,
        -0.9998289346694946,
        -1.0
      ],
      "type": "VEC3"
    },
    {
      "bufferView": 1,
      "byteOffset": 2097048,
      "componentType": 5126,
      "count": 34304,
      "max": [
        0.9990810751914978,
        0.9996559619903564
      ],
      "min": [
        0.00032542835106141865,
        0.0005880594253540039
      ],
      "type": "VEC2"
    },
    {
      "bufferView": 0,
      "byteOffset": 3725940,
      "componentType": 5125,
      "count": 42690,
      "type": "SCALAR"
    }
  ],
  "asset": {
    "extras": {
      "author": "ffish.asia / floraZia.com (https://sketchfab.com/ffishAsia-and-floraZia)",
      "license": "CC-BY-4.0 (http://creativecommons.org/licenses/by/4.0/)",
      "source": "https://sketchfab.com/3d-models/sawtooth-oak-trunk-quercus-acutissima-9cdc49463c8847ada0e8ea3a8445cdc8",
      "title": "クヌギの幹 Sawtooth oak, Trunk, Quercus Acutissima"
    },
    "generator": "Sketchfab-12.66.0",
    "version": "2.0"
  },
  "bufferViews": [
    {
      "buffer": 0,
      "byteLength": 3896700,
      "name": "floatBufferViews",
      "target": 34963
    },
    {
      "buffer": 0,
      "byteLength": 2371480,
      "byteOffset": 3896700,
      "byteStride": 8,
      "name": "floatBufferViews",
      "target": 34962
    },
    {
      "buffer": 0,
      "byteLength": 7114440,
      "byteOffset": 6268180,
      "byteStride": 12,
      "name": "floatBufferViews",
      "target": 34962
    }
  ],
  "buffers": [
    {
      "byteLength": 13382620,
      "uri": "scene.bin"
    }
  ],
  "images": [
    {
      "uri": "textures/Material0_baseColor.jpeg"
    }
  ],
  "materials": [
    {
      "doubleSided": true,
      "name": "Material0",
      "pbrMetallicRoughness": {
        "baseColorTexture": {
          "index": 0
        },
        "metallicFactor": 0.0
      }
    }
  ],
  "meshes": [
    {
      "name": "Object_0",
      "primitives": [
        {
          "attributes": {
            "NORMAL": 1,
            "POSITION": 0,
            "TEXCOORD_0": 2
          },
          "indices": 3,
          "material": 0,
          "mode": 4
        }
      ]
    },
    {
      "name": "Object_1",
      "primitives": [
        {
          "attributes": {
            "NORMAL": 5,
            "POSITION": 4,
            "TEXCOORD_0": 6
          },
          "indices": 7,
          "material": 0,
          "mode": 4
        }
      ]
    },
    {
      "name": "Object_2",
      "primitives": [
        {
          "attributes": {
            "NORMAL": 9,
            "POSITION": 8,
            "TEXCOORD_0": 10
          },
          "indices": 11,
          "material": 0,
          "mode": 4
        }
      ]
    },
    {
      "name": "Object_3",
      "primitives": [
        {
          "attributes": {
            "NORMAL": 13,
            "POSITION": 12,
            "TEXCOORD_0": 14
          },
          "indices": 15,
          "material": 0,
          "mode": 4
        }
      ]
    },
    {
      "name": "Object_4",
      "primitives": [
        {
          "attributes": {
            "NORMAL": 17,
            "POSITION": 16,
            "TEXCOORD_0": 18
          },
          "indices": 19,
          "material": 0,
          "mode": 4
        }
      ]
    }
  ],
  "nodes": [
    {
      "children": [
        1
      ],
      "matrix": [
        1.0,
        0.0,
        0.0,
        0.0,
        0.0,
        2.220446049250313e-16,
        -1.0,
        0.0,
        0.0,
        1.0,
        2.220446049250313e-16,
        0.0,
        0.0,
        0.0,
        0.0,
        1.0
      ],
      "name": "Sketchfab_model"
    },
    {
      "children": [
        2
      ],
      "name": "root"
    },
    {
      "children": [
        3
      ],
      "matrix": [
        1.0,
        0.0,
        0.0,
        0.0,
        0.0,
        2.220446049250313e-16,
        1.0,
        0.0,
        0.0,
        -1.0,
        2.220446049250313e-16,
        0.0,
        0.0,
        0.0,
        0.0,
        1.0
      ],
      "name": "GLTF_SceneRootNode"
    },
    {
      "children": [
        4
      ],
      "matrix": [
        1.0,
        0.0,
        -0.0,
        0.0,
        -0.0,
        0.0,
        -1.0,
        0.0,
        0.0,
        1.0,
        0.0,
        0.0,
        0.0,
        0.0,
        0.0,
        1.0
      ],
      "name": "RootNode (gltf orientation matrix)_0"
    },
    {
      "children": [
        5
      ],
      "matrix": [
        1.0,
        0.0,
        0.0,
        0.0,
        0.0,
        2.220446049250313e-16,
        -1.0,
        0.0,
        0.0,
        1.0,
        2.220446049250313e-16,
        0.0,
        0.0,
        37.65149688720703,
        18.084800720214844,
        1.0
      ],
      "name": "RootNode (model correction matrix)_1"
    },
    {
      "children": [
        6
      ],
      "matrix": [
        1.0,
        0.0,
        0.0,
        0.0,
        0.0,
        -1.0,
        0.0,
        0.0,
        0.0,
        0.0,
        -1.0,
        0.0,
        0.0,
        0.0,
        0.0,
        1.0
      ],
      "name": "sketchfabTemp.obj.fbx_2"
    },
    {
      "children": [
        7
      ],
      "name": "RootNode_3"
    },
    {
      "children": [
        8,
        10,
        12,
        14,
        16
      ],
      "name": "Stereo textured mesh_4"
    },
    {
      "children": [
        9
      ],
      "name": "Stereo textured mesh_Material0_0_5"
    },
    {
      "mesh": 0,
      "name": "Object_9"
    },
    {
      "children": [
        11
      ],
      "name": "Stereo textured mesh_Material0_0_6"
    },
    {
      "mesh": 1,
      "name": "Object_11"
    },
    {
      "children": [
        13
      ],
      "name": "Stereo textured mesh_Material0_0_7"
    },
    {
      "mesh": 2,
      "name": "Object_13"
    },
    {
      "children": [
        15
      ],
      "name": "Stereo textured mesh_Material0_0_8"
    },
    {
      "mesh": 3,
      "name": "Object_15"
    },
    {
      "children": [
        17
      ],
      "name": "Stereo textured mesh_Material0_0_9"
    },
    {
      "mesh": 4,
      "name": "Object_17"
    }
  ],
  "samplers": [
    {
      "magFilter": 9729,
      "minFilter": 9987,
      "wrapS": 10497,
      "wrapT": 10497
    }
  ],
  "scene": 0,
  "scenes": [
    {
      "name": "Sketchfab_Scene",
      "nodes": [
        0
      ]
    }
  ],
  "textures": [
    {
      "sampler": 0,
      "source": 0
    }
  ]
}
