{
  "accessors": [
    {
      "bufferView": 2,
      "componentType": 5126,
      "count": 24,
      "max": [
        1.0,
        1.0,
        1.0
      ],
      "min": [
        -1.0,
        -1.0,
        -1.0
      ],
      "type": "VEC3"
    },
    {
      "bufferView": 2,
      "byteOffset": 288,
      "componentType": 5126,
      "count": 24,
      "max": [
        1.0,
        1.0,
        1.0
      ],
      "min": [
        -1.0,
        -1.0,
        -1.0
      ],
      "type": "VEC3"
    },
    {
      "bufferView": 1,
      "componentType": 5126,
      "count": 24,
      "max": [
        0.7499567270278931,
        0.9999133944511414
      ],
      "min": [
        8.658754813950509e-05,
        8.660554885864258e-05
      ],
      "type": "VEC2"
    },
    {
      "bufferView": 0,
      "componentType": 5125,
      "count": 36,
      "type": "SCALAR"
    },
    {
      "bufferView": 2,
      "byteOffset": 576,
      "componentType": 5126,
      "count": 65532,
      "max": [
        4.007054328918457,
        3.1418638229370117,
        2.482675790786743
      ],
      "min": [
        -2.61975359916687,
        -2.8674087524414063,
        -5.749760150909424
      ],
      "type": "VEC3"
    },
    {
      "bufferView": 2,
      "byteOffset": 786960,
      "componentType": 5126,
      "count": 65532,
      "max": [
        0.999999463558197,
        1.0,
        0.9999621510505676
      ],
      "min": [
        -1.0,
        -1.0,
        -0.9999909400939941
      ],
      "type": "VEC3"
    },
    {
      "bufferView": 1,
      "byteOffset": 192,
      "componentType": 5126,
      "count": 65532,
      "max": [
        0.9995949864387512,
        0.9994980096817017
      ],
      "min": [
        0.0002789999998640269,
        0.00031197071075439453
      ],
      "type": "VEC2"
    },
    {
      "bufferView": 0,
      "byteOffset": 144,
      "componentType": 5125,
      "count": 258930,
      "type": "SCALAR"
    },
    {
      "bufferView": 2,
      "byteOffset": 1573344,
      "componentType": 5126,
      "count": 65532,
      "max": [
        4.025844573974609,
        3.2257699966430664,
        2.568415641784668
      ],
      "min": [
        -2.68141770362854,
        -2.8425064086914063,
        -5.4309844970703125
      ],
      "type": "VEC3"
    },
    {
      "bufferView": 2,
      "byteOffset": 2359728,
      "componentType": 5126,
      "count": 65532,
      "max": [
        0.999981701374054,
        0.9999410510063171,
        0.9999616146087646
      ],
      "min": [
        -0.9999885559082031,
        -0.9999417066574097,
        -0.9999894499778748
      ],
      "type": "VEC3"
    },
    {
      "bufferView": 1,
      "byteOffset": 524448,
      "componentType": 5126,
      "count": 65532,
      "max": [
        0.9996910095214844,
        0.9995740056037903
      ],
      "min": [
        0.00028300000121816993,
        0.00029402971267700195
      ],
      "type": "VEC2"
    },
    {
      "bufferView": 0,
      "byteOffset": 1035864,
      "componentType": 5125,
      "count": 225009,
      "type": "SCALAR"
    },
    {
      "bufferView": 2,
      "byteOffset": 3146112,
      "componentType": 5126,
      "count": 65532,
      "max": [
        4.025844573974609,
        3.2257699966430664,
        2.692760705947876
      ],
      "min": [
        -2.668379783630371,
        -2.851193428039551,
        -5.515557289123535
      ],
      "type": "VEC3"
    },
    {
      "bufferView": 2,
      "byteOffset": 3932496,
      "componentType": 5126,
      "count": 65532,
      "max": [
        1.0,
        1.0,
        0.9999747276306152
      ],
      "min": [
        -0.9999291896820068,
        -0.9999933242797852,
        -0.9999252557754517
      ],
      "type": "VEC3"
    },
    {
      "bufferView": 1,
      "byteOffset": 1048704,
      "componentType": 5126,
      "count": 65532,
      "max": [
        0.9996230006217957,
        0.999563992023468
      ],
      "min": [
        0.0002789999998640269,
        0.00028902292251586914
      ],
      "type": "VEC2"
    },
    {
      "bufferView": 0,
      "byteOffset": 1935900,
      "componentType": 5125,
      "count": 153645,
      "type": "SCALAR"
    },
    {
      "bufferView": 2,
      "byteOffset": 4718880,
      "componentType": 5126,
      "count": 65532,
      "max": [
        3.9846742153167725,
        3.2141027450561523,
        2.6955788135528564
      ],
      "min": [
        -2.689863681793213,
        -2.8674087524414063,
        -5.711035251617432
      ],
      "type": "VEC3"
    },
    {
      "bufferView": 2,
      "byteOffset": 5505264,
      "componentType": 5126,
      "count": 65532,
      "max": [
        1.0,
        1.0,
        0.9999799132347107
      ],
      "min": [
        -0.9999293684959412,
        -1.0,
        -0.999869704246521
      ],
      "type": "VEC3"
    },
    {
      "bufferView": 1,
      "byteOffset": 1572960,
      "componentType": 5126,
      "count": 65532,
      "max": [
        0.9997190237045288,
        0.9993699789047241
      ],
      "min": [
        0.00029399999766610563,
        0.0002980232238769531
      ],
      "type": "VEC2"
    },
    {
      "bufferView": 0,
      "byteOffset": 2550480,
      "componentType": 5125,
      "count": 121059,
      "type": "SCALAR"
    },
    {
      "bufferView": 2,
      "byteOffset": 6291648,
      "componentType": 5126,
      "count": 17778,
      "max": [
        3.950589418411255,
        3.176089286804199,
        2.429151773452759
      ],
      "min": [
        -2.630544662475586,
        -2.8382205963134766,
        -5.714015483856201
      ],
      "type": "VEC3"
    },
    {
      "bufferView": 2,
      "byteOffset": 6504984,
      "componentType": 5126,
      "count": 17778,
      "max": [
        0.9999415874481201,
        0.9999100565910339,
        0.9999463558197021
      ],
      "min": [
        -0.9992257356643677,
        -0.9997794032096863,
        -0.999900221824646
      ],
      "type": "VEC3"
    },
    {
      "bufferView": 1,
      "byteOffset": 2097216,
      "componentType": 5126,
      "count": 17778,
      "max": [
        0.99965500831604,
        0.9989219903945923
      ],
      "min": [
        0.00029299999005161226,
        0.00029599666595458984
      ],
      "type": "VEC2"
    },
    {
      "bufferView": 0,
      "byteOffset": 3034716,
      "componentType": 5125,
      "count": 20751,
      "type": "SCALAR"
    },
    {
      "bufferView": 2,
      "byteOffset": 6718320,
      "componentType": 5126,
      "count": 65532,
      "max": [
        4.025844573974609,
        3.186629295349121,
        2.482212781906128
      ],
      "min": [
        -2.689863681793213,
        -2.8674087524414063,
        -5.674071311950684
      ],
      "type": "VEC3"
    },
    {
      "bufferView": 2,
      "byteOffset": 7504704,
      "componentType": 5126,
      "count": 65532,
      "max": [
        1.0,
        1.0,
        1.0
      ],
      "min": [
        -1.0,
        -1.0,
        -1.0
      ],
      "type": "VEC3"
    },
    {
      "bufferView": 1,
      "byteOffset": 2239440,
      "componentType": 5126,
      "count": 65532,
      "max": [
        1.9996479749679565,
        0.9994660019874573
      ],
      "min": [
        1.0003290176391602,
        0.00030297040939331055
      ],
      "type": "VEC2"
    },
    {
      "bufferView": 0,
      "byteOffset": 3117720,
      "componentType": 5125,
      "count": 240123,
      "type": "SCALAR"
    },
    {
      "bufferView": 2,
      "byteOffset": 8291088,
      "componentType": 5126,
      "count": 65532,
      "max": [
        4.019022464752197,
        3.2005128860473633,
        2.4563217163085938
      ],
      "min": [
        -2.6144065856933594,
        -2.346859931945801,
        -5.65403413772583
      ],
      "type": "VEC3"
    },
    {
      "bufferView": 2,
      "byteOffset": 9077472,
      "componentType": 5126,
      "count": 65532,
      "max": [
        0.9999675154685974,
        0.9999932050704956,
        0.9999924302101135
      ],
      "min": [
        -0.9999591708183289,
        -0.9999962449073792,
        -0.999976634979248
      ],
      "type": "VEC3"
    },
    {
      "bufferView": 1,
      "byteOffset": 2763696,
      "componentType": 5126,
      "count": 65532,
      "max": [
        1.9997129440307617,
        0.9995629787445068
      ],
      "min": [
        1.0002909898757935,
        0.0002859830856323242
      ],
      "type": "VEC2"
    },
    {
      "bufferView": 0,
      "byteOffset": 4078212,
      "componentType": 5125,
      "count": 229239,
      "type": "SCALAR"
    },
    {
      "bufferView": 2,
      "byteOffset": 9863856,
      "componentType": 5126,
      "count": 65532,
      "max": [
        4.025844573974609,
        3.2257699966430664,
        2.692760705947876
      ],
      "min": [
        -2.689863681793213,
        -2.775862693786621,
        -5.636212348937988
      ],
      "type": "VEC3"
    },
    {
      "bufferView": 2,
      "byteOffset": 10650240,
      "componentType": 5126,
      "count": 65532,
      "max": [
        0.9999851584434509,
        1.0,
        1.0
      ],
      "min": [
        -1.0,
        -1.0,
        -1.0
      ],
      "type": "VEC3"
    },
    {
      "bufferView": 1,
      "byteOffset": 3287952,
      "componentType": 5126,
      "count": 65532,
      "max": [
        1.9997199773788452,
        0.999547004699707
      ],
      "min": [
        1.0002800226211548,
        0.0002809762954711914
      ],
      "type": "VEC2"
    },
    {
      "bufferView": 0,
      "byteOffset": 4995168,
      "componentType": 5125,
      "count": 159375,
      "type": "SCALAR"
    },
    {
      "bufferView": 2,
      "byteOffset": 11436624,
      "componentType": 5126,
      "count": 65532,
      "max": [
        3.215097188949585,
        3.0332746505737305,
        2.6955788135528564
      ],
      "min": [
        -2.689863681793213,
        -2.8674087524414063,
        -5.537647247314453
      ],
      "type": "VEC3"
    },
    {
      "bufferView": 2,
      "byteOffset": 12223008,
      "componentType": 5126,
      "count": 65532,
      "max": [
        1.0,
        1.0,
        1.0
      ],
      "min": [
        -1.0,
        -1.0,
        -1.0
      ],
      "type": "VEC3"
    },
    {
      "bufferView": 1,
      "byteOffset": 3812208,
      "componentType": 5126,
      "count": 65532,
      "max": [
        1.9997210502624512,
        0.9995629787445068
      ],
      "min": [
        1.0002820491790771,
        0.00029599666595458984
      ],
      "type": "VEC2"
    },
    {
      "bufferView": 0,
      "byteOffset": 5632668,
      "componentType": 5125,
      "count": 119781,
      "type": "SCALAR"
    },
    {
      "bufferView": 2,
      "byteOffset": 13009392,
      "componentType": 5126,
      "count": 39562,
      "max": [
        3.9703943729400635,
        3.2142953872680664,
        2.6820685863494873
      ],
      "min": [
        -2.5860116481781006,
        -2.8532848358154297,
        -5.54640531539917
      ],
      "type": "VEC3"
    },
    {
      "bufferView": 2,
      "byteOffset": 13484136,
      "componentType": 5126,
      "count": 39562,
      "max": [
        0.9998038411140442,
        0.9999455809593201,
        1.0
      ],
      "min": [
        -1.0,
        -0.9999174475669861,
        -0.9999704360961914
      ],
      "type": "VEC3"
    },
    {
      "bufferView": 1,
      "byteOffset": 4336464,
      "componentType": 5126,
      "count": 39562,
      "max": [
        1.9997199773788452,
        0.999504029750824
      ],
      "min": [
        1.0002909898757935,
        0.00028198957443237305
      ],
      "type": "VEC2"
    },
    {
      "bufferView": 0,
      "byteOffset": 6111792,
      "componentType": 5125,
      "count": 57402,
      "type": "SCALAR"
    }
  ],
  "asset": {
    "extras": {
      "author": "ffish.asia / floraZia.com (https://sketchfab.com/ffishAsia-and-floraZia)",
      "license": "CC-BY-4.0 (http://creativecommons.org/licenses/by/4.0/)",
      "source": "https://sketchfab.com/3d-models/marsh-labrador-herb-ledum-palustre-c7910cde1f084ea1823b7c0fdfbe700f",
      "title": "イソツツジ Marsh Labrador Herb, Ledum palustre"
    },
    "generator": "Sketchfab-13.70.0",
    "version": "2.0"
  },
  "bufferViews": [
    {
      "buffer": 0,
      "byteLength": 6341400,
      "name": "floatBufferViews",
      "target": 34963
    },
    {
      "buffer": 0,
      "byteLength": 4652960,
      "byteOffset": 6341400,
      "byteStride": 8,
      "name": "floatBufferViews",
      "target": 34962
    },
    {
      "buffer": 0,
      "byteLength": 13958880,
      "byteOffset": 10994360,
      "byteStride": 12,
      "name": "floatBufferViews",
      "target": 34962
    }
  ],
  "buffers": [
    {
      "byteLength": 24953240,
      "uri": "scene.bin"
    }
  ],
  "extensionsUsed": [
    "KHR_materials_unlit"
  ],
  "images": [
    {
      "uri": "textures/Material.001_baseColor.jpeg"
    },
    {
      "uri": "textures/HKD033-W01-1all-1_tex0_baseColor.jpeg"
    },
    {
      "uri": "textures/HKD033-W01-1all-1_tex1_baseColor.jpeg"
    }
  ],
  "materials": [
    {
      "doubleSided": true,
      "extensions": {
        "KHR_materials_unlit": {}
      },
      "name": "Material.001",
      "pbrMetallicRoughness": {
        "baseColorTexture": {
          "index": 0
        },
        "metallicFactor": 0.0
      }
    },
    {
      "doubleSided": true,
      "extensions": {
        "KHR_materials_unlit": {}
      },
      "name": "HKD033-W01-1all-1_tex0",
      "pbrMetallicRoughness": {
        "baseColorTexture": {
          "index": 1
        },
        "metallicFactor": 0.0
      }
    },
    {
      "doubleSided": true,
      "extensions": {
        "KHR_materials_unlit": {}
      },
      "name": "HKD033-W01-1all-1_tex1",
      "pbrMetallicRoughness": {
        "baseColorTexture": {
          "index": 2
        },
        "metallicFactor": 0.0
      }
    }
  ],
  "meshes": [
    {
      "name": "Object_0",
      "primitives": [
        {
          "attributes": {
            "NORMAL": 1,
            "POSITION": 0,
            "TEXCOORD_0": 2
          },
          "indices": 3,
          "material": 0,
          "mode": 4
        }
      ]
    },
    {
      "name": "Object_1",
      "primitives": [
        {
          "attributes": {
            "NORMAL": 5,
            "POSITION": 4,
            "TEXCOORD_0": 6
          },
          "indices": 7,
          "material": 1,
          "mode": 4
        }
      ]
    },
    {
      "name": "Object_2",
      "primitives": [
        {
          "attributes": {
            "NORMAL": 9,
            "POSITION": 8,
            "TEXCOORD_0": 10
          },
          "indices": 11,
          "material": 1,
          "mode": 4
        }
      ]
    },
    {
      "name": "Object_3",
      "primitives": [
        {
          "attributes": {
            "NORMAL": 13,
            "POSITION": 12,
            "TEXCOORD_0": 14
          },
          "indices": 15,
          "material": 1,
          "mode": 4
        }
      ]
    },
    {
      "name": "Object_4",
      "primitives": [
        {
          "attributes": {
            "NORMAL": 17,
            "POSITION": 16,
            "TEXCOORD_0": 18
          },
          "indices": 19,
          "material": 1,
          "mode": 4
        }
      ]
    },
    {
      "name": "Object_5",
      "primitives": [
        {
          "attributes": {
            "NORMAL": 21,
            "POSITION": 20,
            "TEXCOORD_0": 22
          },
          "indices": 23,
          "material": 1,
          "mode": 4
        }
      ]
    },
    {
      "name": "Object_6",
      "primitives": [
        {
          "attributes": {
            "NORMAL": 25,
            "POSITION": 24,
            "TEXCOORD_0": 26
          },
          "indices": 27,
          "material": 2,
          "mode": 4
        }
      ]
    },
    {
      "name": "Object_7",
      "primitives": [
        {
          "attributes": {
            "NORMAL": 29,
            "POSITION": 28,
            "TEXCOORD_0": 30
          },
          "indices": 31,
          "material": 2,
          "mode": 4
        }
      ]
    },
    {
      "name": "Object_8",
      "primitives": [
        {
          "attributes": {
            "NORMAL": 33,
            "POSITION": 32,
            "TEXCOORD_0": 34
          },
          "indices": 35,
          "material": 2,
          "mode": 4
        }
      ]
    },
    {
      "name": "Object_9",
      "primitives": [
        {
          "attributes": {
            "NORMAL": 37,
            "POSITION": 36,
            "TEXCOORD_0": 38
          },
          "indices": 39,
          "material": 2,
          "mode": 4
        }
      ]
    },
    {
      "name": "Object_10",
      "primitives": [
        {
          "attributes": {
            "NORMAL": 41,
            "POSITION": 40,
            "TEXCOORD_0": 42
          },
          "indices": 43,
          "material": 2,
          "mode": 4
        }
      ]
    }
  ],
  "nodes": [
    {
      "children": [
        1
      ],
      "matrix": [
        1.0,
        0.0,
        0.0,
        0.0,
        0.0,
        2.220446049250313e-16,
        -1.0,
        0.0,
        0.0,
        1.0,
        2.220446049250313e-16,
        0.0,
        0.0,
        0.0,
        0.0,
        1.0
      ],
      "name": "Sketchfab_model"
    },
    {
      "children": [
        2
      ],
      "name": "root"
    },
    {
      "children": [
        3,
        5
      ],
      "matrix": [
        1.0,
        0.0,
        0.0,
        0.0,
        0.0,
        2.220446049250313e-16,
        1.0,
        0.0,
        0.0,
        -1.0,
        2.220446049250313e-16,
        0.0,
        0.0,
        0.0,
        0.0,
        1.0
      ],
      "name": "GLTF_SceneRootNode"
    },
    {
      "children": [
        4
      ],
      "matrix": [
        -0.0005074396135413342,
        -0.27395053980060863,
        0.0009771228678868529,
        0.0,
        0.0012647418126582085,
        -0.0009794568936303055,
        -0.2739481117699179,
        0.0,
        0.27394936293891825,
        -0.0005029199365542244,
        0.0012665456973477561,
        0.0,
        4.145227432250977,
        0.011646561324596405,
        0.0045005083084106445,
        1.0
      ],
      "name": "Cube_2"
    },
    {
      "mesh": 0,
      "name": "Object_4"
    },
    {
      "children": [
        6,
        7,
        8,
        9,
        10,
        11,
        12,
        13,
        14,
        15
      ],
      "matrix": [
        -0.9343581649273973,
        -0.3478453799423784,
        -0.07732018679652594,
        0.0,
        -0.03584958634204327,
        -0.12412356593646856,
        0.9916189527930171,
        0.0,
        -0.354527328696409,
        0.9292991617514555,
        0.10350575431071807,
        0.0,
        -0.11220362782478333,
        1.1016355752944946,
        0.0,
        1.0
      ],
      "name": "HKD033-W01-1all-1_5"
    },
    {
      "mesh": 1,
      "name": "Object_6"
    },
    {
      "mesh": 2,
      "name": "Object_7"
    },
    {
      "mesh": 3,
      "name": "Object_8"
    },
    {
      "mesh": 4,
      "name": "Object_9"
    },
    {
      "mesh": 5,
      "name": "Object_10"
    },
    {
      "mesh": 6,
      "name": "Object_11"
    },
    {
      "mesh": 7,
      "name": "Object_12"
    },
    {
      "mesh": 8,
      "name": "Object_13"
    },
    {
      "mesh": 9,
      "name": "Object_14"
    },
    {
      "mesh": 10,
      "name": "Object_15"
    }
  ],
  "samplers": [
    {
      "magFilter": 9729,
      "minFilter": 9987,
      "wrapS": 10497,
      "wrapT": 10497
    }
  ],
  "scene": 0,
  "scenes": [
    {
      "name": "Sketchfab_Scene",
      "nodes": [
        0
      ]
    }
  ],
  "textures": [
    {
      "sampler": 0,
      "source": 0
    },
    {
      "sampler": 0,
      "source": 1
    },
    {
      "sampler": 0,
      "source": 2
    }
  ]
}
